HIERARCHY
ROOT Hips
{
	OFFSET	0.00	0.00	0.00
	CHANNELS 6 Xposition Yposition Zposition Zrotation Xrotation Yrotation
	JOINT LeftUpLeg
	{
		OFFSET	 0.126116	-0.014019	-0.065224
		CHANNELS 3 Zrotation Xrotation Yrotation
		JOINT LeftLeg
		{
			OFFSET	 0.000000	 0.000000	 0.569914
			CHANNELS 3 Zrotation Xrotation Yrotation
			JOINT LeftFoot
			{
				OFFSET	 0.000000	 0.000000	 0.544423
				CHANNELS 3 Zrotation Xrotation Yrotation
				JOINT LeftToeBase
				{
					OFFSET	 0.000000	 0.000000	 0.207117
					CHANNELS 3 Zrotation Xrotation Yrotation
					End Site
					{
						OFFSET	 0.000000	 0.000000	 0.207117
					}
				}
			}
		}
	}
	JOINT RightUpLeg
	{
		OFFSET	-0.124023	-0.008373	-0.065224
		CHANNELS 3 Zrotation Xrotation Yrotation
		JOINT RightLeg
		{
			OFFSET	 0.000000	 0.000000	 0.570047
			CHANNELS 3 Zrotation Xrotation Yrotation
			JOINT RightFoot
			{
				OFFSET	 0.000000	 0.000000	 0.544354
				CHANNELS 3 Zrotation Xrotation Yrotation
				JOINT RightToeBase
				{
					OFFSET	 0.000000	 0.000000	 0.207540
					CHANNELS 3 Zrotation Xrotation Yrotation
					End Site
					{
						OFFSET	 0.000000	 0.000000	 0.207540
					}
				}
			}
		}
	}
	JOINT Spine
	{
		OFFSET	 0.000184	-0.007763	 0.117403
		CHANNELS 3 Zrotation Xrotation Yrotation
		JOINT Spine1
		{
			OFFSET	 0.000000	 0.000000	 0.137269
			CHANNELS 3 Zrotation Xrotation Yrotation
			JOINT Spine2
			{
				OFFSET	 0.000000	 0.000000	 0.156879
				CHANNELS 3 Zrotation Xrotation Yrotation
				JOINT LeftShoulder
				{
					OFFSET	 0.080501	-0.002496	 0.160144
					CHANNELS 3 Zrotation Xrotation Yrotation
					JOINT LeftArm
					{
						OFFSET	 0.000000	 0.000000	 0.164363
						CHANNELS 3 Zrotation Xrotation Yrotation
						JOINT LeftForeArm
						{
							OFFSET	 0.000000	 0.000000	 0.364576
							CHANNELS 3 Zrotation Xrotation Yrotation
							JOINT LeftHand
							{
								OFFSET	 0.000000	 0.000000	 0.360812
								CHANNELS 3 Zrotation Xrotation Yrotation
								JOINT LeftHandIndex1
								{
									OFFSET	 0.000000	 0.000000	 0.086006
									CHANNELS 3 Zrotation Xrotation Yrotation
									JOINT LeftHandIndex2
									{
										OFFSET	 0.000000	 0.000000	 0.047236
										CHANNELS 3 Zrotation Xrotation Yrotation
										JOINT LeftHandIndex3
										{
											OFFSET	-0.004284	-0.000551	 0.038166
											CHANNELS 3 Zrotation Xrotation Yrotation
											End Site
											{
												OFFSET	-0.004284	-0.000551	 0.038166
											}
										}
									}
								}
							}
						}
					}
				}
				JOINT Neck
				{
					OFFSET	 0.000000	 0.000000	 0.176489
					CHANNELS 3 Zrotation Xrotation Yrotation
					JOINT Head
					{
						OFFSET	 0.000000	-0.001747	 0.077940
						CHANNELS 3 Zrotation Xrotation Yrotation
						End Site
						{
							OFFSET	 0.000000	-0.001747	 0.077940
						}
					}
				}
				JOINT RightShoulder
				{
					OFFSET	-0.080363	 0.000306	 0.159706
					CHANNELS 3 Zrotation Xrotation Yrotation
					JOINT RightArm
					{
						OFFSET	 0.000000	 0.000000	 0.164196
						CHANNELS 3 Zrotation Xrotation Yrotation
						JOINT RightForeArm
						{
							OFFSET	 0.000000	 0.000000	 0.365611
							CHANNELS 3 Zrotation Xrotation Yrotation
							JOINT RightHand
							{
								OFFSET	 0.000000	 0.000000	 0.360648
								CHANNELS 3 Zrotation Xrotation Yrotation
								JOINT RightHandIndex1
								{
									OFFSET	 0.000000	 0.000000	 0.069977
									CHANNELS 3 Zrotation Xrotation Yrotation
									JOINT RightHandIndex2
									{
										OFFSET	 0.000000	 0.000000	 0.052305
										CHANNELS 3 Zrotation Xrotation Yrotation
										JOINT RightHandIndex3
										{
											OFFSET	 0.009002	-0.000782	 0.042196
											CHANNELS 3 Zrotation Xrotation Yrotation
											End Site
											{
												OFFSET	 0.009002	-0.000782	 0.042196
											}
										}
									}
								}
							}
						}
					}
				}
			}
		}
	}
}
MOTION
Frames:    10
Frame Time: 0.03333334
-0.210456	-4.407031	 0.924401	-13.341840	 0.418318	 0.566949	 2.004169	-33.489070	 172.317000	-6.440531	-68.912420	-7.104278	 177.307400	 86.593890	 179.720300	-2.320722	 37.854080	-0.219526	-0.437211	-35.103970	-177.356100	 1.937599	-73.772060	 4.382012	-178.143600	 85.252780	 179.704400	 2.403319	 22.342820	-0.126182	 0.312992	 14.237430	 1.271976	 1.022982	 7.713199	-1.989901	 1.425175	 4.793219	 0.034688	-142.063400	 89.573880	-126.364300	 49.903480	 61.143430	-77.819910	-13.144030	-2.232934	-20.241190	 1.959521	 10.854070	-5.456639	-3.812334	 37.924440	-2.927599	-2.450526	 36.184240	 0.754587	-1.378229	 35.397820	-2.634230	 1.504758	 2.603958	-3.156826	 0.915048	 7.940290	 2.657573	 93.903070	 85.927060	 171.564800	-54.133980	 70.385960	 73.372100	-6.369858	-12.401740	 21.307350	-29.352640	 9.735672	 9.670251	 6.437017	 35.671460	-0.771858	 2.830251	 35.756010	-7.813440	-2.350882	 35.473990	 5.254307
-0.208535	-4.405741	 0.933017	-14.056710	 1.492924	 0.494665	 2.233941	-33.930470	 172.391900	-5.737010	-67.576580	-6.155485	 176.911400	 87.074500	-179.678900	-2.332617	 36.580490	-0.187486	-0.045466	-35.457560	-177.516300	 1.647010	-71.912230	 4.330062	-177.656900	 85.619890	 179.353100	 2.405184	 21.174160	-0.149702	 0.306291	 14.312110	 1.171862	 1.060769	 7.545606	-1.982123	 1.538561	 4.620595	 0.039773	-132.975600	 89.503470	-135.430200	 48.620850	 61.201020	-77.014600	-13.166600	-2.310980	-19.684250	 2.370050	 11.679100	-5.469304	-3.812334	 37.924440	-2.927599	-2.450526	 36.184240	 0.754587	-1.378229	 35.397820	-2.634230	 1.640377	 2.429187	-3.121194	 1.013579	 7.793265	 3.014475	 94.052150	 85.969780	 171.331500	-54.090730	 70.595440	 73.310750	-6.514126	-12.326550	 20.903030	-29.781280	 10.563840	 9.690031	 6.437017	 35.671460	-0.771858	 2.830251	 35.756010	-7.813440	-2.350882	 35.473990	 5.254307
-0.206616	-4.404330	 0.941495	-14.650470	 2.609975	 0.364744	 2.426606	-34.488500	 172.561600	-5.112577	-66.365840	-5.325425	 176.320000	 87.568040	-178.870300	-2.341745	 35.516200	-0.161356	 0.317733	-35.947470	-177.552400	 1.444866	-70.213760	 4.333415	-177.154500	 85.974010	 178.991600	 2.405999	 20.519300	-0.162779	 0.255384	 14.308290	 1.113087	 1.061690	 7.386534	-1.952293	 1.647243	 4.471063	 0.044738	-127.359700	 89.442920	-141.056400	 47.312540	 61.152900	-76.147250	-13.124700	-2.366511	-19.116010	 2.723296	 12.399300	-5.481116	-3.812334	 37.924440	-2.927599	-2.450526	 36.184240	 0.754587	-1.378229	 35.397820	-2.634230	 1.759110	 2.285696	-3.074530	 1.123369	 7.660715	 3.404661	 94.202750	 86.006940	 171.090000	-54.027780	 70.854140	 73.097060	-6.554389	-12.201100	 20.517490	-30.071060	 11.286940	 9.709754	 6.437017	 35.671460	-0.771858	 2.830251	 35.756010	-7.813440	-2.350882	 35.473990	 5.254307
-0.204519	-4.402905	 0.949707	-15.253290	 3.695732	 0.169658	 2.643281	-35.006260	 172.804800	-4.623762	-65.203510	-4.621399	 175.363700	 88.064580	-177.709700	-2.349411	 34.550200	-0.138110	 0.706195	-36.506670	-177.463100	 1.062776	-68.826270	 4.190305	-176.421400	 86.420120	 178.316800	 2.406386	 20.149170	-0.170139	 0.214799	 14.298600	 1.104504	 1.066953	 7.247584	-1.898609	 1.753899	 4.331157	 0.049780	-123.608300	 89.392840	-144.830200	 46.049590	 61.054530	-75.374990	-13.218140	-2.366420	-18.600570	 2.898560	 13.021040	-5.492834	-3.812334	 37.924440	-2.927599	-2.450526	 36.184240	 0.754587	-1.378229	 35.397820	-2.634230	 1.874726	 2.163490	-3.006386	 1.233672	 7.523056	 3.809627	 94.315380	 86.034930	 170.912200	-54.024060	 71.158870	 72.849800	-6.477794	-12.018410	 20.135980	-30.218730	 11.910240	 9.727631	 6.437017	 35.671460	-0.771858	 2.830251	 35.756010	-7.813440	-2.350882	 35.473990	 5.254307
-0.202259	-4.401806	 0.957664	-15.928860	 4.698073	-0.068335	 2.948605	-35.376440	 173.104200	-4.338045	-64.050400	-4.056215	 173.656400	 88.565640	-175.831500	-2.356257	 33.622870	-0.116184	 1.147930	-37.123550	-177.284700	 0.395230	-67.779770	 3.830694	-175.141000	 87.075370	 176.962800	 2.406689	 19.818110	-0.176710	 0.224593	 14.364900	 1.152037	 1.116967	 7.148759	-1.833549	 1.866043	 4.194620	 0.055193	-121.054500	 89.351090	-147.398700	 44.834680	 60.929750	-74.776330	-13.423140	-2.337132	-18.099890	 2.975190	 13.553030	-5.503712	-3.812334	 37.924440	-2.927599	-2.450526	 36.184240	 0.754587	-1.378229	 35.397820	-2.634230	 2.003745	 2.050146	-2.933843	 1.337059	 7.377815	 4.201717	 94.400140	 86.057530	 170.782300	-53.974580	 71.496830	 72.517540	-6.485594	-11.841250	 19.687080	-30.447320	 12.444050	 9.741711	 6.437017	 35.671460	-0.771858	 2.830251	 35.756010	-7.813440	-2.350882	 35.473990	 5.254307
-0.200284	-4.401057	 0.964527	-16.588790	 5.483039	-0.303301	 3.321396	-35.558710	 173.418800	-4.240830	-63.003360	-3.634433	 170.597400	 89.013440	-172.641000	-2.361379	 32.880130	-0.098883	 1.540159	-37.676540	-177.081100	-0.399370	-66.900110	 3.324872	-173.530900	 87.672490	 175.190300	 2.406948	 19.496030	-0.183086	 0.269552	 14.557530	 1.250267	 1.194345	 7.127795	-1.767398	 1.969090	 4.092219	 0.060003	-119.548200	 89.321030	-148.903500	 43.775250	 60.832800	-74.418580	-13.552540	-2.348873	-17.622390	 3.168259	 13.946330	-5.510572	-3.812334	 37.924440	-2.927599	-2.450526	 36.184240	 0.754587	-1.378229	 35.397820	-2.634230	 2.126084	 1.946428	-2.881812	 1.421124	 7.281681	 4.503475	 94.462550	 86.076490	 170.691700	-53.860000	 71.828060	 72.151180	-6.568559	-11.674000	 19.194750	-30.735780	 12.840660	 9.748640	 6.437017	 35.671460	-0.771858	 2.830251	 35.756010	-7.813440	-2.350882	 35.473990	 5.254307
-0.198553	-4.400708	 0.970392	-17.164890	 6.146841	-0.507602	 3.714296	-35.618300	 173.709200	-4.191141	-62.027500	-3.254719	 164.007400	 89.408180	-165.920000	-2.365012	 32.324750	-0.086092	 1.804907	-38.107780	-176.796900	-1.177100	-66.061770	 2.743468	-171.793500	 88.141530	 173.239200	 2.407100	 19.277880	-0.187397	 0.298913	 14.790670	 1.357121	 1.251639	 7.153982	-1.699226	 2.052560	 4.020717	 0.063831	-118.651400	 89.303960	-149.813200	 42.836680	 60.804200	-74.295900	-13.558880	-2.424511	-17.123410	 3.577627	 14.215040	-5.512421	-3.812334	 37.924440	-2.927599	-2.450526	 36.184240	 0.754587	-1.378229	 35.397820	-2.634230	 2.220965	 1.868328	-2.842520	 1.492746	 7.216115	 4.683433	 94.518810	 86.096560	 170.615600	-53.657090	 72.181180	 71.700480	-6.703269	-11.495580	 18.635320	-31.074390	 13.115610	 9.747781	 6.437017	 35.671460	-0.771858	 2.830251	 35.756010	-7.813440	-2.350882	 35.473990	 5.254307
-0.197430	-4.400696	 0.975437	-17.543870	 6.707419	-0.632503	 4.047137	-35.677150	 173.917100	-4.079022	-61.170650	-2.872844	 146.389700	 89.705920	-148.149200	-2.367409	 31.941390	-0.077342	 1.892044	-38.275400	-176.677100	-1.805942	-65.234500	 2.189138	-169.953500	 88.491950	 171.181400	 2.407118	 19.244840	-0.188046	 0.266877	 14.985310	 1.396080	 1.247289	 7.216886	-1.655855	 2.100218	 3.992590	 0.065829	-118.215500	 89.301990	-150.286300	 42.067970	 60.881020	-74.414950	-13.592430	-2.516218	-16.610390	 4.055076	 14.349390	-5.509802	-3.812334	 37.924440	-2.927599	-2.450526	 36.184240	 0.754587	-1.378229	 35.397820	-2.634230	 2.263847	 1.865387	-2.786853	 1.553022	 7.157217	 4.702134	 94.580060	 86.119950	 170.536700	-53.326980	 72.560260	 71.105720	-6.859194	-11.301080	 18.030740	-31.429200	 13.258150	 9.739860	 6.437017	 35.671460	-0.771858	 2.830251	 35.756010	-7.813440	-2.350882	 35.473990	 5.254307
-0.196720	-4.400846	 0.980039	-17.715460	 7.237019	-0.673707	 4.282350	-35.816130	 174.014900	-3.879190	-60.396110	-2.488251	 90.183300	 89.839290	-91.771840	-2.368905	 31.695960	-0.071765	 1.811307	-38.288800	-176.607100	-2.216198	-64.383760	 1.722478	-167.762400	 88.767110	 168.800000	 2.407071	 19.311240	-0.186737	 0.173803	 15.083640	 1.345422	 1.180124	 7.294798	-1.654029	 2.112825	 3.996482	 0.066154	-118.106700	 89.313290	-150.466400	 41.440060	 61.004650	-74.662300	-13.694230	-2.581543	-16.055560	 4.468980	 14.359560	-5.504030	-3.812334	 37.924440	-2.927599	-2.450526	 36.184240	 0.754587	-1.378229	 35.397820	-2.634230	 2.248121	 1.913443	-2.720841	 1.609802	 7.109255	 4.615568	 94.662490	 86.148730	 170.426600	-52.817910	 72.995740	 70.284650	-7.019204	-11.071540	 17.354530	-31.798680	 13.276860	 9.725568	 6.437017	 35.671460	-0.771858	 2.830251	 35.756010	-7.813440	-2.350882	 35.473990	 5.254307
-0.196319	-4.400558	 0.984149	-17.692930	 7.725075	-0.674132	 4.413052	-36.027320	 174.067900	-3.628809	-59.696430	-2.139821	 39.011830	 89.744350	-40.434910	-2.369244	 31.640750	-0.070502	 1.583771	-38.431080	-176.586600	-2.340470	-63.629310	 1.410657	-164.940600	 88.993800	 165.847200	 2.406981	 19.445720	-0.184081	 0.034313	 15.143070	 1.271568	 1.070876	 7.364453	-1.710797	 2.099448	 4.023008	 0.065246	-118.859500	 89.346880	-149.797400	 40.990190	 61.120990	-75.042370	-13.891870	-2.614788	-15.643730	 4.725960	 14.236700	-5.496282	-3.812334	 37.924440	-2.927599	-2.450526	 36.184240	 0.754587	-1.378229	 35.397820	-2.634230	 2.190843	 1.987107	-2.695514	 1.657075	 7.082816	 4.497701	 94.671720	 86.133150	 170.380500	-52.078940	 73.510010	 69.171780	-7.144850	-10.845510	 16.683670	-32.175030	 13.161620	 9.704878	 6.437017	 35.671460	-0.771858	 2.830251	 35.756010	-7.813440	-2.350882	 35.473990	 5.254307
